<mxfile host="app.diagrams.net" modified="2022-01-23T07:08:36.625Z" agent="5.0 (X11; Linux x86_64) AppleWebKit/537.36 (KHTML, like Gecko) Chrome/96.0.4664.110 Safari/537.36" etag="Mnaif6K8dYINrNgFbU_e" version="16.4.5" type="github" pages="2">
  <diagram id="6a0Bi6d6h9jVSM5qxD7G" name="linux操作系统结构">
    <mxGraphModel dx="743" dy="716" grid="1" gridSize="10" guides="1" tooltips="1" connect="1" arrows="1" fold="1" page="1" pageScale="1" pageWidth="827" pageHeight="1169" background="#ffffff" math="0" shadow="0">
      <root>
        <mxCell id="0" />
        <mxCell id="1" parent="0" />
        <mxCell id="YwZb_tAib6V3glr_cUcF-1" value="用户应用程序" style="rounded=0;whiteSpace=wrap;html=1;" parent="1" vertex="1">
          <mxGeometry x="190" y="160" width="270" height="60" as="geometry" />
        </mxCell>
        <mxCell id="YwZb_tAib6V3glr_cUcF-2" value="" style="rounded=0;whiteSpace=wrap;html=1;" parent="1" vertex="1">
          <mxGeometry x="190" y="220" width="270" height="60" as="geometry" />
        </mxCell>
        <mxCell id="YwZb_tAib6V3glr_cUcF-4" value="" style="rounded=0;whiteSpace=wrap;html=1;" parent="1" vertex="1">
          <mxGeometry x="190" y="280" width="270" height="60" as="geometry" />
        </mxCell>
      </root>
    </mxGraphModel>
  </diagram>
  <diagram id="zYQj0PKgwb6zvEXt3iAd" name="内核模块关联">
    <mxGraphModel dx="743" dy="716" grid="1" gridSize="10" guides="1" tooltips="1" connect="1" arrows="1" fold="1" page="1" pageScale="1" pageWidth="827" pageHeight="1169" math="0" shadow="0">
      <root>
        <mxCell id="B5ygCQ96GolIEFHXMJDr-0" />
        <mxCell id="B5ygCQ96GolIEFHXMJDr-1" parent="B5ygCQ96GolIEFHXMJDr-0" />
        <mxCell id="B5ygCQ96GolIEFHXMJDr-2" value="文件系统（VFS）" style="rounded=0;whiteSpace=wrap;html=1;" parent="B5ygCQ96GolIEFHXMJDr-1" vertex="1">
          <mxGeometry x="160" y="290" width="160" height="70" as="geometry" />
        </mxCell>
        <mxCell id="B5ygCQ96GolIEFHXMJDr-3" value="操作系统的服务层--系统调用接口" style="rounded=0;whiteSpace=wrap;html=1;" parent="B5ygCQ96GolIEFHXMJDr-1" vertex="1">
          <mxGeometry x="130" y="210" width="500" height="40" as="geometry" />
        </mxCell>
        <mxCell id="B5ygCQ96GolIEFHXMJDr-4" value="进程管理模块&lt;br&gt;&lt;br&gt;进程间通信模块" style="rounded=0;whiteSpace=wrap;html=1;" parent="B5ygCQ96GolIEFHXMJDr-1" vertex="1">
          <mxGeometry x="400" y="290" width="180" height="80" as="geometry" />
        </mxCell>
        <mxCell id="B5ygCQ96GolIEFHXMJDr-5" value="内存管理模块" style="rounded=0;whiteSpace=wrap;html=1;" parent="B5ygCQ96GolIEFHXMJDr-1" vertex="1">
          <mxGeometry x="160" y="400" width="160" height="60" as="geometry" />
        </mxCell>
        <mxCell id="B5ygCQ96GolIEFHXMJDr-6" value="" style="endArrow=classic;startArrow=classic;html=1;rounded=0;entryX=0;entryY=0.25;entryDx=0;entryDy=0;" parent="B5ygCQ96GolIEFHXMJDr-1" target="B5ygCQ96GolIEFHXMJDr-4" edge="1">
          <mxGeometry width="50" height="50" relative="1" as="geometry">
            <mxPoint x="320" y="410" as="sourcePoint" />
            <mxPoint x="370" y="360" as="targetPoint" />
          </mxGeometry>
        </mxCell>
        <mxCell id="B5ygCQ96GolIEFHXMJDr-7" value="" style="endArrow=classic;startArrow=classic;html=1;rounded=0;" parent="B5ygCQ96GolIEFHXMJDr-1" edge="1">
          <mxGeometry width="50" height="50" relative="1" as="geometry">
            <mxPoint x="240" y="290" as="sourcePoint" />
            <mxPoint x="239.5" y="250" as="targetPoint" />
            <Array as="points">
              <mxPoint x="239.5" y="280" />
            </Array>
          </mxGeometry>
        </mxCell>
        <mxCell id="B5ygCQ96GolIEFHXMJDr-9" value="" style="endArrow=classic;startArrow=classic;html=1;rounded=0;" parent="B5ygCQ96GolIEFHXMJDr-1" edge="1">
          <mxGeometry width="50" height="50" relative="1" as="geometry">
            <mxPoint x="320" y="430" as="sourcePoint" />
            <mxPoint x="400" y="430" as="targetPoint" />
          </mxGeometry>
        </mxCell>
        <mxCell id="B5ygCQ96GolIEFHXMJDr-10" value="" style="endArrow=classic;startArrow=classic;html=1;rounded=0;" parent="B5ygCQ96GolIEFHXMJDr-1" edge="1">
          <mxGeometry width="50" height="50" relative="1" as="geometry">
            <mxPoint x="490" y="290" as="sourcePoint" />
            <mxPoint x="489.5" y="250" as="targetPoint" />
            <Array as="points">
              <mxPoint x="489.5" y="280" />
            </Array>
          </mxGeometry>
        </mxCell>
        <mxCell id="B5ygCQ96GolIEFHXMJDr-12" value="" style="endArrow=classic;startArrow=classic;html=1;rounded=0;" parent="B5ygCQ96GolIEFHXMJDr-1" edge="1">
          <mxGeometry width="50" height="50" relative="1" as="geometry">
            <mxPoint x="240" y="400" as="sourcePoint" />
            <mxPoint x="239.5" y="360" as="targetPoint" />
            <Array as="points">
              <mxPoint x="239.5" y="390" />
            </Array>
          </mxGeometry>
        </mxCell>
        <mxCell id="B5ygCQ96GolIEFHXMJDr-13" value="驱动管理模块" style="rounded=0;whiteSpace=wrap;html=1;" parent="B5ygCQ96GolIEFHXMJDr-1" vertex="1">
          <mxGeometry x="400" y="440" width="220" height="60" as="geometry" />
        </mxCell>
        <mxCell id="B5ygCQ96GolIEFHXMJDr-15" value="字符设备驱动" style="rounded=0;whiteSpace=wrap;html=1;" parent="B5ygCQ96GolIEFHXMJDr-1" vertex="1">
          <mxGeometry x="400" y="380" width="80" height="60" as="geometry" />
        </mxCell>
        <mxCell id="B5ygCQ96GolIEFHXMJDr-16" value="块设备驱动" style="rounded=0;whiteSpace=wrap;html=1;" parent="B5ygCQ96GolIEFHXMJDr-1" vertex="1">
          <mxGeometry x="480" y="380" width="70" height="60" as="geometry" />
        </mxCell>
        <mxCell id="B5ygCQ96GolIEFHXMJDr-17" value="网络驱动" style="rounded=0;whiteSpace=wrap;html=1;" parent="B5ygCQ96GolIEFHXMJDr-1" vertex="1">
          <mxGeometry x="550" y="380" width="70" height="60" as="geometry" />
        </mxCell>
        <mxCell id="B5ygCQ96GolIEFHXMJDr-20" value="硬件系统" style="rounded=0;whiteSpace=wrap;html=1;" parent="B5ygCQ96GolIEFHXMJDr-1" vertex="1">
          <mxGeometry x="400" y="500" width="220" height="60" as="geometry" />
        </mxCell>
        <mxCell id="B5ygCQ96GolIEFHXMJDr-21" value="硬件" style="rounded=0;whiteSpace=wrap;html=1;" parent="B5ygCQ96GolIEFHXMJDr-1" vertex="1">
          <mxGeometry x="140" y="585" width="500" height="40" as="geometry" />
        </mxCell>
        <mxCell id="B5ygCQ96GolIEFHXMJDr-28" value="" style="endArrow=none;html=1;rounded=0;" parent="B5ygCQ96GolIEFHXMJDr-1" edge="1">
          <mxGeometry width="50" height="50" relative="1" as="geometry">
            <mxPoint x="100" y="570" as="sourcePoint" />
            <mxPoint x="680" y="570" as="targetPoint" />
          </mxGeometry>
        </mxCell>
        <mxCell id="B5ygCQ96GolIEFHXMJDr-30" value="" style="endArrow=none;html=1;rounded=0;" parent="B5ygCQ96GolIEFHXMJDr-1" edge="1">
          <mxGeometry width="50" height="50" relative="1" as="geometry">
            <mxPoint x="100" y="200" as="sourcePoint" />
            <mxPoint x="680" y="200" as="targetPoint" />
          </mxGeometry>
        </mxCell>
      </root>
    </mxGraphModel>
  </diagram>
</mxfile>
